<svg id="cool" xmlns="http://www.w3.org/2000/svg" width="97.947" height="97.947" viewBox="0 0 97.947 97.947">
  <g id="Group_9828" data-name="Group 9828">
    <g id="Group_9827" data-name="Group 9827">
      <path id="Path_10629" data-name="Path 10629" d="M145.877,256.541a2.127,2.127,0,0,0-3.007.166,23.689,23.689,0,0,1-35.155,0,2.129,2.129,0,0,0-3.173,2.84,27.947,27.947,0,0,0,41.5,0A2.131,2.131,0,0,0,145.877,256.541Z" transform="translate(-76.319 -187.86)" fill="#fff"/>
      <path id="Path_10630" data-name="Path 10630" d="M91.559,21.293h-2.21a48.927,48.927,0,0,0-80.751,0H6.388A6.4,6.4,0,0,0,0,27.681V48.974a48.974,48.974,0,0,0,97.947,0V27.681A6.4,6.4,0,0,0,91.559,21.293ZM48.974,4.259A44.55,44.55,0,0,1,84.069,21.293H13.881A44.537,44.537,0,0,1,48.974,4.259Zm0,89.43A44.789,44.789,0,0,1,5.193,58.068a10.522,10.522,0,0,0,5.453,1.552H31.939A10.659,10.659,0,0,0,42.586,48.974V42.586H55.361v6.388A10.659,10.659,0,0,0,66.008,59.62H87.3a10.522,10.522,0,0,0,5.453-1.552A44.789,44.789,0,0,1,48.974,93.689ZM93.689,48.974A6.4,6.4,0,0,1,87.3,55.361H66.008a6.4,6.4,0,0,1-6.388-6.388V42.586a4.263,4.263,0,0,0-4.259-4.259H42.586a4.263,4.263,0,0,0-4.259,4.259v6.388a6.4,6.4,0,0,1-6.388,6.388H10.646a6.4,6.4,0,0,1-6.388-6.388V27.681a2.133,2.133,0,0,1,2.129-2.129H91.559a2.131,2.131,0,0,1,2.129,2.129Z" fill="#fff"/>
    </g>
  </g>
</svg>
