<?xml version="1.0"?>
<svg xmlns="http://www.w3.org/2000/svg" xmlns:xlink="http://www.w3.org/1999/xlink" xmlns:svgjs="http://svgjs.com/svgjs" version="1.1" width="512" height="512" x="0" y="0" viewBox="0 0 468.508 468" style="enable-background:new 0 0 512 512" xml:space="preserve" class=""><g><path xmlns="http://www.w3.org/2000/svg" d="m464.957031 1.605469c-2.222656-1.480469-5.03125-1.757813-7.5-.746094-142.855469 59.480469-303.546875 59.480469-446.402343 0-2.46875-1.019531-5.28125-.738281-7.503907.746094-2.21875 1.484375-3.550781 3.980469-3.550781 6.652343v344.289063c0 2.671875 1.332031 5.167969 3.550781 6.652344s5.03125 1.765625 7.5.746093c142.855469-59.480468 303.546875-59.480468 446.402344 0 2.46875 1.019532 5.28125.742188 7.503906-.746093 2.21875-1.484375 3.550781-3.980469 3.550781-6.652344v-344.289063c0-2.671874-1.332031-5.167968-3.550781-6.652343zm-12.449219 339.101562c-140.273437-55.179687-296.238281-55.179687-436.511718 0v-320.609375c140.269531 55.1875 296.242187 55.1875 436.511718 0zm0 0" fill="#ffffff" data-original="#000000" style="" class=""/><path xmlns="http://www.w3.org/2000/svg" d="m226.253906 90.738281v18.066407c-33.4375 3.78125-59.820312 30.164062-63.601562 63.601562h-18.066406c-4.421876 0-8 3.582031-8 8s3.578124 8 8 8h18.066406c3.78125 33.433594 30.164062 59.816406 63.601562 63.597656v18.074219c0 4.417969 3.578125 8 8 8 4.417969 0 8-3.582031 8-8v-18.074219c33.433594-3.78125 59.816406-30.164062 63.597656-63.597656h18.074219c4.417969 0 8-3.582031 8-8s-3.582031-8-8-8h-18.074219c-3.78125-33.4375-30.164062-59.820312-63.597656-63.601562v-18.066407c0-4.417969-3.582031-8-8-8-4.421875 0-8 3.582031-8 8zm64.066406 89.667969c0 30.964844-25.101562 56.066406-56.066406 56.066406-30.96875 0-56.070312-25.101562-56.070312-56.066406 0-30.96875 25.101562-56.070312 56.070312-56.070312 30.949219.035156 56.03125 25.117187 56.066406 56.070312zm0 0" fill="#ffffff" data-original="#000000" style="" class=""/><path xmlns="http://www.w3.org/2000/svg" d="m207.171875 142.601562c-2.4375 1.4375-3.933594 4.058594-3.933594 6.886719v61.832031c0 2.832032 1.496094 5.453126 3.9375 6.890626 2.4375 1.441406 5.453125 1.484374 7.933594.113281l56-30.914063c2.546875-1.410156 4.125-4.089844 4.125-7s-1.578125-5.59375-4.125-7l-56-30.917968c-2.480469-1.371094-5.496094-1.328126-7.9375.109374zm12.066406 20.441407 31.449219 17.363281-31.449219 17.359375zm0 0" fill="#ffffff" data-original="#000000" style="" class=""/></g></svg>
