<svg xmlns="http://www.w3.org/2000/svg" width="82.978" height="86.526" viewBox="0 0 82.978 86.526">
  <g id="ebook" transform="translate(-0.5)">
    <path id="Path_10619" data-name="Path 10619" d="M78.072,9.694h-1.76V8.132A8.149,8.149,0,0,0,68.18,0h0L14.143.072c-.393,0-.79,0-1.188-.007C10.236.042,7.425.017,5.1,1.018,2.3,2.22.755,4.725.51,8.464c0,.028,0,.055,0,.084V79.094c0,.088-.006.176-.006.265s0,.174.006.261v.007s0,0,0,.007c.135,3.47,2.835,6.893,7.878,6.893H68.247a8.1,8.1,0,0,0,8.046-8.136l0-11.876L76.3,40.29h1.77a5.412,5.412,0,0,0,5.407-5.405V15.1a5.413,5.413,0,0,0-5.407-5.406ZM12.866,2.619V72.09H8.385a8.156,8.156,0,0,0-5.324,1.764V8.59c.394-5.737,3.985-6.02,9.805-5.972ZM80.924,34.884a2.855,2.855,0,0,1-2.852,2.851H52.8a1.277,1.277,0,0,0,0,2.555H73.747l-.013,26.223a5.584,5.584,0,0,1-5.578,5.577H41.286a1.277,1.277,0,1,0,0,2.554h26.87a8.1,8.1,0,0,0,5.58-2.221l0,5.968a5.543,5.543,0,0,1-5.492,5.581H8.385c-3.556,0-5.215-2.161-5.324-4.378v-.467c.11-2.2,1.786-4.483,5.324-4.483h5.339a1.259,1.259,0,0,0,.839,0H35.437a1.277,1.277,0,0,0,0-2.554H15.421V2.625l52.76-.071a5.6,5.6,0,0,1,5.578,5.577V9.694H27.528A5.413,5.413,0,0,0,22.122,15.1V34.884a5.413,5.413,0,0,0,5.407,5.406H46.949a1.277,1.277,0,0,0,0-2.555H27.528a2.855,2.855,0,0,1-2.852-2.851V15.1a2.855,2.855,0,0,1,2.852-2.851H78.072A2.855,2.855,0,0,1,80.925,15.1Zm0,0" fill="#fff" fill-rule="evenodd"/>
    <path id="Path_10620" data-name="Path 10620" d="M299.989,118.367a4.178,4.178,0,0,0-3.167,1.3,4.652,4.652,0,0,0-1.236,3.324,4.7,4.7,0,0,0,1.241,3.363,4.419,4.419,0,0,0,6.309-.015,5.116,5.116,0,0,0,0-6.658,4.143,4.143,0,0,0-3.148-1.317Zm1.446,6.547a1.888,1.888,0,0,1-2.922,0,3.042,3.042,0,0,1-.56-1.911,2.869,2.869,0,0,1,.58-1.868,1.881,1.881,0,0,1,2.908,0,3.412,3.412,0,0,1-.005,3.769Zm0,0" transform="translate(-245.217 -98.363)" fill="#fff" fill-rule="evenodd"/>
    <path id="Path_10621" data-name="Path 10621" d="M171.694,127.2a1.063,1.063,0,0,0-.757-.316H168.9v-1.375h1.758a1.05,1.05,0,0,0,.776-.311,1.023,1.023,0,0,0-.005-1.466,1.06,1.06,0,0,0-.771-.316h-1.772V122.1h1.993a1.006,1.006,0,0,0,.728-.311l0-.005,0,0a1.1,1.1,0,0,0,.292-.747,1.006,1.006,0,0,0-.3-.733.976.976,0,0,0-.728-.311h-3.123a1.077,1.077,0,0,0-.815.354,1.125,1.125,0,0,0-.335.809v6.671a1.1,1.1,0,0,0,.341.819,1.127,1.127,0,0,0,.824.33h3.167a1.068,1.068,0,0,0,.761-.3,1.01,1.01,0,0,0,.307-.733,1,1,0,0,0-.086-.422,1.181,1.181,0,0,0-.224-.321Zm0,0" transform="translate(-138.034 -99.707)" fill="#fff" fill-rule="evenodd"/>
    <path id="Path_10622" data-name="Path 10622" d="M418.656,123.725l2.4-2.357a1.186,1.186,0,0,0,.335-.814,1.106,1.106,0,0,0-.331-.795,1.092,1.092,0,0,0-.8-.331,1.207,1.207,0,0,0-.867.422l-2.635,2.787v-2.083a1.1,1.1,0,0,0-.335-.8,1.133,1.133,0,0,0-1.619,0,1.073,1.073,0,0,0-.341.79v6.9a1.178,1.178,0,0,0,1.155,1.164,1.077,1.077,0,0,0,.815-.354,1.157,1.157,0,0,0,.326-.809V124.9l2.985,3.266a1.244,1.244,0,0,0,.9.421,1.072,1.072,0,0,0,.8-.33,1.145,1.145,0,0,0,0-1.595Zm0,0" transform="translate(-344.009 -99.234)" fill="#fff" fill-rule="evenodd"/>
    <path id="Path_10623" data-name="Path 10623" d="M358.048,119.074a4.181,4.181,0,0,0-3.171,1.3,5.132,5.132,0,0,0,0,6.686,4.16,4.16,0,0,0,3.152,1.318,4.111,4.111,0,0,0,3.157-1.332,5.1,5.1,0,0,0,0-6.658A4.13,4.13,0,0,0,358.048,119.074Zm1.442,6.547a1.883,1.883,0,0,1-2.917,0,3.019,3.019,0,0,1-.566-1.911,2.852,2.852,0,0,1,.58-1.863,1.883,1.883,0,0,1,2.913,0,3.007,3.007,0,0,1,.56,1.887A2.972,2.972,0,0,1,359.49,125.621Zm0,0" transform="translate(-293.461 -98.951)" fill="#fff" fill-rule="evenodd"/>
    <path id="Path_10624" data-name="Path 10624" d="M255.115,124.051a1.591,1.591,0,0,0,.306-.249,1.7,1.7,0,0,0,.335-.584,2.392,2.392,0,0,0,.129-.8,2.252,2.252,0,0,0-.772-1.776,3,3,0,0,0-2.026-.661h-2.065a1.149,1.149,0,0,0-.824.326,1.1,1.1,0,0,0-.341.828v6.657a1.126,1.126,0,0,0,.341.843,1.168,1.168,0,0,0,.848.331h2.664a2.909,2.909,0,0,0,2.079-.771,2.611,2.611,0,0,0,.815-1.964A2.113,2.113,0,0,0,255.115,124.051Zm-2.961-2.016h.766a.7.7,0,0,1,.512.2.638.638,0,0,1,.206.469.593.593,0,0,1-.216.46.766.766,0,0,1-.527.2h-.743v-1.326Zm1.892,4.655a.8.8,0,0,1-.575.225H252.14v-1.533h1.346a.792.792,0,0,1,.79.79A.694.694,0,0,1,254.047,126.691Zm0,0" transform="translate(-207.218 -99.704)" fill="#fff" fill-rule="evenodd"/>
    <path id="Path_10625" data-name="Path 10625" d="M215.96,141.691h-1.547a1.032,1.032,0,0,0,0,2.064h1.547a1.032,1.032,0,0,0,0-2.064Zm0,0" transform="translate(-176.906 -117.746)" fill="#fff" fill-rule="evenodd"/>
  </g>
</svg>
