<svg xmlns="http://www.w3.org/2000/svg" width="91.6" height="91.402" viewBox="0 0 91.6 91.402">
  <g id="wallet" transform="translate(0 -0.519)">
    <g id="Group_9830" data-name="Group 9830" transform="translate(0 0.518)">
      <g id="Group_9829" data-name="Group 9829">
        <path id="Path_10635" data-name="Path 10635" d="M90.155,15.6,87.407,1.748a1.527,1.527,0,0,0-1.795-1.2h0L9.971,15.587H7.633a1.527,1.527,0,0,0-1.527,1.527V24.9A7.615,7.615,0,0,0,0,32.381V84.288a7.643,7.643,0,0,0,7.633,7.633h82.44A1.527,1.527,0,0,0,91.6,90.394V17.114A1.526,1.526,0,0,0,90.155,15.6ZM84.706,3.841l2.333,11.746H25.628ZM4.377,29.141l.008.006a4.669,4.669,0,0,1,1.722-1.084v8.618c-.034-.011-.067-.018-.1-.031a4.489,4.489,0,0,1-.573-.276,2.754,2.754,0,0,1-.278-.153,4.712,4.712,0,0,1-.763-.6A4.592,4.592,0,0,1,4.377,29.141Zm84.17,41.406H67.174V58.334H88.547Zm0-15.267h-22.9a1.527,1.527,0,0,0-1.527,1.527V72.074A1.527,1.527,0,0,0,65.647,73.6h22.9V88.868H7.633a4.58,4.58,0,0,1-4.58-4.58v-45.8c.069.052.145.087.215.136.134.095.273.176.412.261a7.676,7.676,0,0,0,.8.424c.153.069.305.136.458.194a7.356,7.356,0,0,0,.9.272c.142.035.279.079.423.105a7.631,7.631,0,0,0,1.376.134H88.547ZM38.275,36.961a10.687,10.687,0,0,1,21.157,0Zm50.272,0H62.5a13.74,13.74,0,0,0-27.3,0H9.16V18.641H88.547Z" transform="translate(0 -0.518)" fill="#fff"/>
      </g>
    </g>
    <g id="Group_9832" data-name="Group 9832" transform="translate(74.807 21.694)">
      <g id="Group_9831" data-name="Group 9831">
        <path id="Path_10636" data-name="Path 10636" d="M401.16,111.482H392v3.053h7.633v7.633h3.053v-9.16A1.527,1.527,0,0,0,401.16,111.482Z" transform="translate(-392 -111.482)" fill="#fff"/>
      </g>
    </g>
    <g id="Group_9834" data-name="Group 9834" transform="translate(12.213 21.694)">
      <g id="Group_9833" data-name="Group 9833">
        <path id="Path_10637" data-name="Path 10637" d="M65.527,111.482A1.527,1.527,0,0,0,64,113.009v9.16h3.053v-7.633h7.633v-3.053Z" transform="translate(-64 -111.482)" fill="#fff"/>
      </g>
    </g>
    <g id="Group_9836" data-name="Group 9836" transform="translate(70.227 62.914)">
      <g id="Group_9835" data-name="Group 9835">
        <rect id="Rectangle_17647" data-name="Rectangle 17647" width="3.053" height="3.053" fill="#fff"/>
      </g>
    </g>
  </g>
</svg>
