<svg xmlns="http://www.w3.org/2000/svg" width="106.711" height="106.713" viewBox="0 0 106.711 106.713">
  <g id="Layer_26" data-name="Layer 26" transform="translate(-1 -0.999)">
    <path id="Path_10631" data-name="Path 10631" d="M105.99,11.328a1.721,1.721,0,0,0,1.721-1.721V2.722A1.721,1.721,0,0,0,105.99,1H87.057a1.721,1.721,0,0,0-1.721,1.222L78.589,25.1H52.634A17.211,17.211,0,1,0,35.423,44.029l1.549,15.49H19.933a1.721,1.721,0,0,0-1.721,1.721v15.49H6.163a1.721,1.721,0,0,0-1.721,1.721v15.49H2.721A1.721,1.721,0,0,0,1,95.664v10.327a1.721,1.721,0,0,0,1.721,1.721H105.99a1.721,1.721,0,0,0,1.721-1.721V95.664a1.721,1.721,0,0,0-1.721-1.721H88.968l6.7-66.953A1.741,1.741,0,0,0,93.942,25.1h-4.63l4.182-13.769ZM78.934,47.351a6.7,6.7,0,0,1-2.978-1.446l5.163-17.366h3.442Zm-5.886-3.735A9.983,9.983,0,0,0,61,45.251l-.293.293a6.609,6.609,0,0,1-9.329,0l-.293-.293a9.965,9.965,0,0,0-12.22-1.48L37.333,28.539H77.557ZM35.423,25.1A1.741,1.741,0,0,0,33.7,26.99l.671,6.609a6.885,6.885,0,1,1,7.694-8.5ZM21.654,26.818A13.769,13.769,0,0,1,49.072,25.1H45.629A10.327,10.327,0,1,0,34.752,37.145l.344,3.442A13.769,13.769,0,0,1,21.654,26.818ZM39.244,47.8l.12-.12a6.609,6.609,0,0,1,9.329,0l.293.293a10.017,10.017,0,0,0,14.182,0l.293-.293a6.609,6.609,0,0,1,9.329,0l.293.293a10.017,10.017,0,0,0,14.182,0l.293-.293a6.575,6.575,0,0,1,2.737-1.6L86.18,87.058h-30.1V78.452a1.721,1.721,0,0,0-1.721-1.721H42.308V61.241a1.721,1.721,0,0,0-1.721-1.721h-.155ZM35.423,93.943V80.173H52.634V93.943ZM31.981,80.173V93.943H28.538V80.173ZM21.654,62.962H38.865V76.731H21.654ZM7.885,80.173H25.1V93.943H7.885Zm96.384,24.1H4.442V97.385h99.827ZM56.077,93.943V90.5H85.835l-.344,3.442Zm35.955-65.4L90.655,42.446a10.034,10.034,0,0,0-5.525,2.805l-.293.293a7.108,7.108,0,0,1-2.186,1.446l5.611-18.451ZM90.5,9.107,85.715,25.1H82.169L88.348,4.443h15.921V7.885H92.221A1.721,1.721,0,0,0,90.5,9.107Z" transform="translate(0 0)" fill="#fff"/>
    <path id="Path_10632" data-name="Path 10632" d="M32.163,42.327A5.163,5.163,0,1,0,27,37.163,5.163,5.163,0,0,0,32.163,42.327Zm0-6.885a1.721,1.721,0,1,1-1.721,1.721A1.721,1.721,0,0,1,32.163,35.442Z" transform="translate(18.75 22.356)" fill="#fff"/>
    <path id="Path_10633" data-name="Path 10633" d="M40.163,53.327A5.163,5.163,0,1,0,35,48.163,5.163,5.163,0,0,0,40.163,53.327Zm0-6.885a1.721,1.721,0,1,1-1.721,1.721A1.721,1.721,0,0,1,40.163,46.442Z" transform="translate(24.519 30.289)" fill="#fff"/>
    <path id="Path_10634" data-name="Path 10634" d="M48.163,44.327A5.163,5.163,0,1,0,43,39.163,5.163,5.163,0,0,0,48.163,44.327Zm0-6.885a1.721,1.721,0,1,1-1.721,1.721A1.721,1.721,0,0,1,48.163,37.442Z" transform="translate(30.288 23.799)" fill="#fff"/>
  </g>
</svg>
