<svg xmlns="http://www.w3.org/2000/svg" width="93.761" height="94.261" viewBox="0 0 93.761 94.261">
  <g id="Line_cutting_stroke_EX" data-name="Line cutting stroke EX" transform="translate(-16.78 -15.981)">
    <g id="Group_9837" data-name="Group 9837" transform="translate(16.78 15.981)">
      <path id="Path_10638" data-name="Path 10638" d="M231.342,366.45l-.424,3.107a36.5,36.5,0,0,0,9.83,0l-.424-3.107A33.516,33.516,0,0,1,231.342,366.45Z" transform="translate(-188.956 -297.772)" fill="#fff"/>
      <path id="Path_10639" data-name="Path 10639" d="M124.192,19.12a32.809,32.809,0,0,1,29.333,17.958l2.792-1.427a36.067,36.067,0,0,0-64.249,0l2.792,1.427A32.809,32.809,0,0,1,124.192,19.12Z" transform="translate(-77.314 -15.981)" fill="#fff"/>
      <path id="Path_10640" data-name="Path 10640" d="M418.66,150.588,415.7,113.536a1.568,1.568,0,0,0-1.559-1.443l-1.55,0h-.022a9.406,9.406,0,0,0-9.406,9.406V134.02h3.135V121.5a6.271,6.271,0,0,1,6.27-6.271h.121l2.849,35.613a4.317,4.317,0,0,1-.79,2.851l-14.428,20.179a1.567,1.567,0,0,0-.293.912v12.542h3.135V175.283l14.135-19.77A7.457,7.457,0,0,0,418.66,150.588Z" transform="translate(-324.923 -93.256)" fill="#fff"/>
      <path id="Path_10641" data-name="Path 10641" d="M321.142,251.623h0v0h0v0h0v0h0v0h0v0h0v0h0l0,0v0h0v0h0v0l0-.006h0v0h0a1.563,1.563,0,0,0,.14-.384h0v-.009h0v0h0v0h0v0h0v0h0a1.572,1.572,0,0,0,.032-.316V240H318.2v8.29l-.095-.049a9.387,9.387,0,0,0-11.4,2.166l-9.051,10.354a13.3,13.3,0,0,0-2.824,12.276L297.823,284v6.171h3.135v-6.38a1.564,1.564,0,0,0-.055-.413l-3.044-11.16a10.167,10.167,0,0,1,2.159-9.388l9.051-10.354a6.259,6.259,0,0,1,7.6-1.444l.946.489-7.054,12.7a1.568,1.568,0,1,0,2.741,1.523l7.838-14.109Z" transform="translate(-239.966 -196.101)" fill="#fff"/>
      <path id="Path_10642" data-name="Path 10642" d="M65.008,379.347l-2.551,1.824,6.573,9.193V402.4h3.135V389.861a1.568,1.568,0,0,0-.292-.912Z" transform="translate(-53.506 -308.141)" fill="#fff"/>
      <path id="Path_10643" data-name="Path 10643" d="M43.8,148.562A9.387,9.387,0,0,0,32.4,146.4l-.095.049V122.5A9.406,9.406,0,0,0,22.9,113.09h-.022l-1.55,0a1.568,1.568,0,0,0-1.559,1.443L16.8,151.588a7.456,7.456,0,0,0,1.365,4.925l5.32,7.441,2.551-1.824-5.321-7.441a4.317,4.317,0,0,1-.79-2.851l2.849-35.613H22.9a6.271,6.271,0,0,1,6.27,6.27v26.524a1.559,1.559,0,0,0,.034.326h0v0h0v0h0v0h0v0h0v0h0v.006h0v0a1.57,1.57,0,0,0,.143.383h0v0h0l0,.005h0v0h0v0h0v0l0,0h0v0h0v0h0v0L37.2,163.89a1.568,1.568,0,1,0,2.741-1.523l-7.054-12.7.946-.489a6.258,6.258,0,0,1,7.6,1.444l9.052,10.354a10.168,10.168,0,0,1,2.159,9.388L49.6,181.529a1.563,1.563,0,0,0-.055.412v6.38h3.135v-6.17l2.988-10.958a13.3,13.3,0,0,0-2.823-12.277Z" transform="translate(-16.78 -94.06)" fill="#fff"/>
      <path id="Path_10644" data-name="Path 10644" d="M146.642,149.785a1.568,1.568,0,0,0,1.109-.46l21.5-21.529a13.7,13.7,0,1,0-19.358-19.38l-3.248,3.253-3.248-3.253a13.7,13.7,0,0,0-19.358,19.38l7.424,7.435,2.219-2.215-7.424-7.435a10.561,10.561,0,1,1,14.921-14.95l4.358,4.364a1.568,1.568,0,0,0,2.219,0l4.358-4.364a10.561,10.561,0,0,1,14.921,14.95L146.642,146l-9.848-9.863-2.219,2.215,10.958,10.974A1.568,1.568,0,0,0,146.642,149.785Z" transform="translate(-99.8 -87.074)" fill="#fff"/>
      <path id="Path_10645" data-name="Path 10645" d="M191.368,186.541l3.311-5.463,6.523,11.611a1.568,1.568,0,0,0,1.259.8c.036,0,.072,0,.108,0a1.568,1.568,0,0,0,1.248-.619l4.233-5.573h3.925V184.16h-4.7a1.568,1.568,0,0,0-1.248.619l-3.258,4.29L196.1,177.2a1.568,1.568,0,0,0-1.341-.8h-.026a1.568,1.568,0,0,0-1.34.755l-4.245,7.005h-5.388V187.3h6.271a1.568,1.568,0,0,0,1.341-.755Z" transform="translate(-151.035 -144.964)" fill="#fff"/>
    </g>
  </g>
</svg>
