<svg xmlns="http://www.w3.org/2000/svg" width="103.748" height="79.756" viewBox="0 0 103.748 79.756">
  <g id="laptop" transform="translate(0 -59.201)">
    <g id="Group_9822" data-name="Group 9822" transform="translate(0 59.201)">
      <g id="Group_9821" data-name="Group 9821" transform="translate(0 0)">
        <path id="Path_10626" data-name="Path 10626" d="M103.743,131.513c0-.015,0-.03,0-.045a1.488,1.488,0,0,0-.027-.177c0-.006,0-.011,0-.017a1.473,1.473,0,0,0-.044-.156l-.015-.04q-.026-.069-.058-.134c0-.008-.006-.016-.01-.023l-8.128-16.032V62.143A2.945,2.945,0,0,0,92.513,59.2H11.234a2.945,2.945,0,0,0-2.942,2.942v52.745L.164,130.92c0,.008-.006.016-.01.023-.021.044-.04.088-.058.134l-.015.04a1.545,1.545,0,0,0-.044.156l0,.016a1.5,1.5,0,0,0-.027.177c0,.015,0,.03,0,.045,0,.032,0,.063,0,.095v3.855a3.5,3.5,0,0,0,3.494,3.494h96.76a3.5,3.5,0,0,0,3.494-3.494v-3.855C103.748,131.575,103.745,131.544,103.743,131.513ZM11.332,62.241H92.416v51.491H11.332Zm-.586,54.53H93l6.751,13.316H66.364l-1.676-6.077a2.87,2.87,0,0,0-2.759-2.1H41.819a2.869,2.869,0,0,0-2.759,2.1l-1.676,6.077H3.994Zm52.465,13.317H40.537l1.417-5.138h19.84Zm37.5,5.375a.455.455,0,0,1-.455.455H3.494a.455.455,0,0,1-.455-.455v-2.336h97.669Z" transform="translate(0 -59.201)" fill="#fff"/>
      </g>
    </g>
    <g id="Group_9824" data-name="Group 9824" transform="translate(14.574 90.519)">
      <g id="Group_9823" data-name="Group 9823">
        <path id="Path_10627" data-name="Path 10627" d="M145,213.756a1.52,1.52,0,0,0-1.52,1.52v15.411H74.962V215.276a1.52,1.52,0,1,0-3.039,0v16.068a2.386,2.386,0,0,0,2.383,2.383H144.14a2.386,2.386,0,0,0,2.383-2.383V215.276A1.52,1.52,0,0,0,145,213.756Z" transform="translate(-71.923 -213.756)" fill="#fff"/>
      </g>
    </g>
    <g id="Group_9826" data-name="Group 9826" transform="translate(14.574 65.483)">
      <g id="Group_9825" data-name="Group 9825" transform="translate(0 0)">
        <path id="Path_10628" data-name="Path 10628" d="M144.14,90.2H74.306a2.386,2.386,0,0,0-2.383,2.383v16.068a1.52,1.52,0,1,0,3.039,0V93.242h68.521v15.411a1.52,1.52,0,1,0,3.039,0V92.586A2.385,2.385,0,0,0,144.14,90.2Z" transform="translate(-71.923 -90.203)" fill="#fff"/>
      </g>
    </g>
  </g>
</svg>
