<svg xmlns="http://www.w3.org/2000/svg" width="115.985" height="100.337" viewBox="0 0 115.985 100.337">
  <g id="working-hours" transform="translate(0 -34.536)">
    <g id="Group_9820" data-name="Group 9820" transform="translate(0 34.536)">
      <path id="Path_10616" data-name="Path 10616" d="M86.466,75.829h-.128A29.476,29.476,0,0,0,61.483,89.6H29.726V82.572a4.019,4.019,0,0,0-4.015-4.015H17.452a4.019,4.019,0,0,0-4.015,4.015V89.6H12.15a8.76,8.76,0,0,1-8.75-8.75v-13a8.76,8.76,0,0,1,8.75-8.75H94.631a8.76,8.76,0,0,1,8.75,8.75V76.9a1.7,1.7,0,1,0,3.4,0V67.847A12.163,12.163,0,0,0,94.631,55.7H76.542V48.115A13.594,13.594,0,0,0,62.963,34.536H43.818A13.594,13.594,0,0,0,30.239,48.115V55.7H12.15A12.163,12.163,0,0,0,0,67.847v51.572a12.163,12.163,0,0,0,12.15,12.15h51.6a1.7,1.7,0,0,0,0-3.4H12.15a8.76,8.76,0,0,1-8.75-8.75V89.264A12.112,12.112,0,0,0,12.15,93h1.288V94.8a8.144,8.144,0,0,0,16.288,0V93H59.633a29.55,29.55,0,0,0,26.827,41.876h.126a29.522,29.522,0,0,0-.121-59.045ZM66.147,55.7H40.634V48.115a3.188,3.188,0,0,1,3.184-3.184H62.963a3.188,3.188,0,0,1,3.184,3.184V55.7ZM33.639,48.115A10.191,10.191,0,0,1,43.818,37.935H62.963A10.191,10.191,0,0,1,73.142,48.115V55.7h-3.6V48.115a6.591,6.591,0,0,0-6.583-6.583H43.818a6.591,6.591,0,0,0-6.583,6.583V55.7h-3.6ZM17.452,81.956h8.258a.616.616,0,0,1,.615.615V86.4H16.837V82.572a.616.616,0,0,1,.615-.615ZM16.837,94.8v-5h9.489v5a4.745,4.745,0,0,1-9.489,0Zm69.736,36.67h-.112a26.123,26.123,0,0,1-.109-52.246h.113a26.123,26.123,0,0,1,.107,52.246Z" transform="translate(0 -34.536)" fill="#fff"/>
      <path id="Path_10617" data-name="Path 10617" d="M303.265,244.835h-.1a23.185,23.185,0,0,0-22.852,19.924,1.7,1.7,0,1,0,3.366.473,19.784,19.784,0,0,1,19.5-17h.086a19.776,19.776,0,0,1,.081,39.552h-.087a19.784,19.784,0,0,1-19.249-15.235,1.7,1.7,0,1,0-3.309.777,23.193,23.193,0,0,0,22.563,17.858h.1a23.176,23.176,0,0,0-.1-46.351Z" transform="translate(-216.801 -197.195)" fill="#fff"/>
      <path id="Path_10618" data-name="Path 10618" d="M358.36,290.355a5.288,5.288,0,0,0,5.282,5.26h.023a5.256,5.256,0,0,0,2.43-.6l4.293,4.086a1.7,1.7,0,1,0,2.344-2.462l-4.293-4.086a5.287,5.287,0,0,0-3.116-7.225l-.038-9.938a1.7,1.7,0,0,0-1.7-1.693h-.007a1.7,1.7,0,0,0-1.693,1.706l.038,9.938A5.291,5.291,0,0,0,358.36,290.355Zm5.274-1.9h.008a1.883,1.883,0,0,1,.008,3.765h-.008a1.883,1.883,0,0,1-.008-3.765Z" transform="translate(-277.18 -219.518)" fill="#fff"/>
    </g>
  </g>
</svg>
